# xmcd
#
# Track frame offsets:
# 150
# 20150
# 31194
# 52316
#
# Disc length: 845 seconds
#
# Revision: 0
# Processed by: cddbd v1.4PL0 Copyright (c) Steve Scherf et al.
# Submitted via: Audion 3.0.2 (http://www.panic.com/audion/)
#
DISCID=32034b04
DTITLE=Larápios - Demo
DYEAR=1900
DGENRE=
TTITLE0=Trato Com o Diabo
TTITLE1=Homenzinhos Verdes
TTITLE2=Um Dia a Seco
TTITLE3=Deixa Rolar
EXTD=
EXTT0=
EXTT1=
EXTT2=
EXTT3=
PLAYORDER=
